<svg xmlns="http://www.w3.org/2000/svg"><symbol id="logo" viewBox="0 0 256 256"><path d="M42.4 100H61v2.2l-5.8.8-26 23.5L59.9 158l7.2.8 1.7 2.2h-31v-2.2l6.5-.8-23.2-24.8V158l8 .8v2.2H1v-2.2l8-.8v-55l-8-.9v-2.2h28.1v2.2l-8 .9v26.1L50.2 103l-7.8-.9z"/><path d="M68.6 129.6a7.2 7.2 0 0 1-4.2 1.3 5 5 0 0 1-3.7-1.4 5.5 5.5 0 0 1-1.6-4.4 8.5 8.5 0 0 1 1.7-5.1 10 10 0 0 1 4.5-3.4 26.8 26.8 0 0 1 10.3-2.3c7.2 0 12.1 1.3 14.7 3.8s3.9 6.4 3.9 11.7V158l7.7.8v2.2H83.2v-7.8c-2.8 5.2-7.4 7.8-14.4 7.8a11.9 11.9 0 0 1-8.2-2.9 9.8 9.8 0 0 1-3.4-8c0-4.7 2.4-8.2 6.9-10.5s11-3.5 19.1-3.5v-7.9c0-3.7-.5-6.6-1.5-8.6s-3-3-5.8-3a6.9 6.9 0 0 0-6.3 3.5 9.1 9.1 0 0 0-1.3 4.8 33.8 33.8 0 0 0 .3 4.7zm14.6 8.9c-7 0-11.5 1.9-13.3 5.6a13.2 13.2 0 0 0-1.2 5.9q0 6.1 4.2 7.2l1.4.2c1.9 0 3.9-1.1 5.8-3.1a11.3 11.3 0 0 0 3.1-7.9v-7.9zm81.4 16a6.1 6.1 0 0 1-1.9 4.5 5.8 5.8 0 0 1-4.6 2 6 6 0 0 1-4.6-1.9 6.2 6.2 0 0 1-1.9-4.6 6.6 6.6 0 0 1 1.9-4.6 6.5 6.5 0 0 1 11.1 4.6zm72.1 6.5h-26.8v-2.2l7.4-.8-8.4-21h-20.6l-7.9 21 8.7.8v2.2H170v-2.2l6.4-.8 22.7-58h6.4l24.2 58 7 .8v2.2zm-29.2-27.4l-9-22.2-8.9 22.2z"/><path d="M255 161h-23.6v-2.2l6-.8v-38.6l-7.9-.4v-2l19.6-1.1V158l5.9.8v2.2zm-5.3-60.5a6.9 6.9 0 0 1-2 4.8 6.6 6.6 0 0 1-4.9 2 6.8 6.8 0 0 1-4.9-2 6.5 6.5 0 0 1-1.9-4.8 6.6 6.6 0 0 1 2-5 6.6 6.6 0 0 1 4.8-2 6.7 6.7 0 0 1 4.9 2.1 7 7 0 0 1 2 4.9zM139.2 158V92.1l-19.5.8v2.2h7.8v20.4l1.8-.2c2.3 0 3.8.6 4.6 1.7a5.3 5.3 0 0 1 1.2 2.8 5.7 5.7 0 0 1-2.8 5.4 7.4 7.4 0 0 0-4.8-1.4V158l-5.9.8v2.2h23.6v-2.2z"/><path d="M119.7 126a13.6 13.6 0 0 1 7.2-2.3h.6v-8.3a15.2 15.2 0 0 0-5.8 3.3 17.1 17.1 0 0 0-5.7 8.4h-.4l.6-11.3-18.7 1.2v2.1l7.4.3V158l-6 .8v2.2h25.5v-2.2l-8.2-.8v-27.2c0-1.7 1.2-3.3 3.5-4.8z"/></symbol></svg>