<?xml version="1.0" encoding="utf-8"?>
<!-- Generator: Adobe Illustrator 23.0.1, SVG Export Plug-In . SVG Version: 6.00 Build 0)  -->
<svg version="1.1" id="Layer_1" xmlns="http://www.w3.org/2000/svg" xmlns:xlink="http://www.w3.org/1999/xlink" x="0px" y="0px"
	 viewBox="0 0 288 288" style="enable-background:new 0 0 288 288;" xml:space="preserve">
<style type="text/css">
	.st0{fill:#231F20;}
</style>
<g>
	<g>
		<path class="st0" d="M74.66,121.02l6.44,21.28h-7.84l0,0c-1.89-0.07-9.24,0-10.64,0l0,0h-7.35V94.14H67.1c9.87,0,14,6.86,14,13.79
			C81.1,114.16,78.79,118.71,74.66,121.02z M65.3,115.55c8.36,0.43,8.52-5.23,8.52-7.47c0-2.03-0.91-6.86-6.72-6.86h-4.48
			l-0.09,33.72h8.58L65.3,115.55z"/>
		<path class="st0" d="M81.1,142.3H55.27v-7.36l23.59-0.01L81.1,142.3z"/>
	</g>
	<g>
		<path class="st0" d="M136.14,142.3l-11.2-27.72v27.72h-7.35V94.14h7.35l11.2,28.21V94.14h7.28v48.17L136.14,142.3L136.14,142.3z"
			/>
		<path class="st0" d="M143.42,142.31l-25.7-0.01v-7.36l25.44-0.12L143.42,142.31z"/>
	</g>
	<g>
		<path class="st0" d="M180.12,142.47l-11.2-27.72v27.72h-7.35V94.31h7.35l11.2,28.21V94.31h7.28v48.17L180.12,142.47L180.12,142.47
			z"/>
		<path class="st0" d="M187.4,142.48l-25.7-0.01v-7.36l25.44-0.12L187.4,142.48z"/>
	</g>
	<g>
		<path class="st0" d="M212.16,193.83l-11.2-27.72v27.72h-7.35v-48.16h7.35l11.2,28.21v-28.21h7.28v48.17L212.16,193.83
			L212.16,193.83z"/>
		<path class="st0" d="M219.44,193.84l-25.7-0.01v-7.36l25.44-0.12L219.44,193.84z"/>
	</g>
	<path class="st0" d="M148.89,142.3V94.14h7.35v48.16H148.89z"/>
	<path class="st0" d="M149.81,193.78v-48.16h7.35v48.16H149.81z"/>
	<path class="st0" d="M56.07,145.5H67.9c9.87,0,14,6.37,14,13.58v21.07c0,7-4.13,13.72-14,13.51H56.07V145.5z M63.21,186.59h4.83
		c5.88,0,6.65-4.69,6.65-6.65v-20.65c0-2.03-0.77-6.72-6.65-6.72h-4.83V186.59z"/>
	<path class="st0" d="M87.3,193.66v-48.17h25.83v7.28H95v13.16h15.96v7.28H95v13.09h18.13v7.35L87.3,193.66L87.3,193.66z"/>
	<path class="st0" d="M125.66,180.36c0,2.31,0.42,7.07,5.81,7.07c5.25,0,5.81-4.97,5.81-6.65c0-1.96-0.77-5.74-6.02-7.98
		c-8.33-3.71-12.67-5.81-12.67-14.7c0-8.4,4.13-13.51,12.88-13.51c10.43,0,12.95,7.63,12.95,14.21v1.68h-7.14v-1.68
		c0-2.1-0.56-7.14-5.81-7.14c-6.16,0-5.81,5.46-5.81,6.93c0,2.31,1.26,4.9,6.51,6.93c6.16,2.45,12.25,5.46,12.25,15.26
		c0,8.26-4.27,13.79-12.95,13.79c-10.36,0-12.88-7.7-12.88-14.21v-4.34h7.07V180.36z"/>
	<path class="st0" d="M180.95,173.22h-5.6v-7.14h12.95v14.28c0,8.33-4.27,14.21-12.95,14.21c-10.36,0-12.88-7.7-12.88-14.21V158.8
		c0-8.33,4.2-14.21,12.88-14.21c10.85,0,12.95,7.63,12.95,14.21v0.84h-7.35v-0.84c0-2.1-0.07-7.14-5.6-7.14s-5.6,5.04-5.6,7.14
		v21.56c0,2.03,0.07,7.07,5.6,7.07s5.6-5.04,5.6-7.07V173.22z"/>
	<g>
		<path class="st0" d="M112.29,107.44V129c0,8.26-4.27,14.21-12.95,14.21c-8.75,0-12.88-5.95-12.88-14.21v-21.56
			c0-8.33,4.2-14.21,12.88-14.21C108.02,93.23,112.29,99.32,112.29,107.44z M104.94,107.44c0-2.03-0.07-7-5.6-7
			c-5.46,0-5.6,4.97-5.6,7V129c0,2.03,0.14,7,5.6,7c5.53,0,5.6-4.97,5.6-7V107.44z"/>
		<polygon class="st0" points="88.31,99.42 95.66,99.42 110.21,137.32 102.93,137.32 		"/>
	</g>
</g>
</svg>
