<?xml version="1.0" encoding="utf-8"?>
<!-- Generator: Adobe Illustrator 23.0.1, SVG Export Plug-In . SVG Version: 6.00 Build 0)  -->
<svg version="1.1" id="Layer_1" xmlns="http://www.w3.org/2000/svg" xmlns:xlink="http://www.w3.org/1999/xlink" x="0px" y="0px"
	 viewBox="0 0 169.41 110.12" style="enable-background:new 0 0 169.41 110.12;" xml:space="preserve">
<style type="text/css">
	.st0{fill:#231F20;}
</style>
<g>
	<path class="st0" d="M30.22,19.57c0-6.93-4.13-13.79-14-13.79H4.39v40.8v7.36h7.35h10.64h7.84l-6.44-21.28
		C27.91,30.35,30.22,25.8,30.22,19.57z M11.74,12.85h4.48c5.81,0,6.72,4.83,6.72,6.86c0,2.24-0.16,7.91-8.52,7.47l5.81,19.38h-8.58
		L11.74,12.85z"/>
	<path class="st0" d="M81.83,5.78v28.21L70.63,5.78h-7.35v48.16h0.13l18.42,0.01v0h7.28V5.78H81.83z M78.83,46.51l-8.2,0.04V26.22
		L78.83,46.51z"/>
	<path class="st0" d="M125.87,5.94v28.21l-11.2-28.21h-7.35V54.1h0.13l18.42,0.01v0h7.28V5.94H125.87z M122.86,46.67l-8.2,0.04
		V26.38L122.86,46.67z"/>
	<path class="st0" d="M157.74,57.31v28.21l-11.2-28.21h-7.35v48.16h0.13l18.42,0.01v0h7.28V57.31H157.74z M154.74,98.04l-8.2,0.04
		V77.75L154.74,98.04z"/>
	<path class="st0" d="M5.19,57.14h11.83c9.87,0,14,6.37,14,13.58v21.07c0,7-4.13,13.72-14,13.51H5.19V57.14z M12.33,98.23h4.83
		c5.88,0,6.65-4.69,6.65-6.65V70.93c0-2.03-0.77-6.72-6.65-6.72h-4.83V98.23z"/>
	<path class="st0" d="M71.05,91.56c0,2.23,0.4,6.81,5.6,6.81c5.06,0,5.6-4.79,5.6-6.41c0-1.89-0.74-5.53-5.8-7.69
		c-8.03-3.57-12.21-5.6-12.21-14.16c0-8.09,3.98-13.02,12.41-13.02c10.05,0,12.48,7.35,12.48,13.69v1.62h-6.88v-1.62
		c0-2.02-0.54-6.88-5.6-6.88c-5.94,0-5.6,5.26-5.6,6.68c0,2.23,1.21,4.72,6.27,6.68c5.94,2.36,11.8,5.26,11.8,14.7
		c0,7.96-4.11,13.29-12.48,13.29c-9.98,0-12.41-7.42-12.41-13.69v-4.18h6.81V91.56z"/>
	<path class="st0" d="M125.63,85.33h-5.5v-7.01h12.71v14.02c0,8.18-4.19,13.95-12.71,13.95c-10.17,0-12.64-7.56-12.64-13.95V71.18
		c0-8.18,4.12-13.95,12.64-13.95c10.65,0,12.71,7.49,12.71,13.95V72h-7.22v-0.82c0-2.06-0.07-7.01-5.5-7.01s-5.5,4.95-5.5,7.01
		v21.17c0,1.99,0.07,6.94,5.5,6.94s5.5-4.95,5.5-6.94V85.33z"/>
	<g>
		<path class="st0" d="M46.77,5.8c-6.94,0-10.3,4.7-10.3,11.37v17.25c0,6.61,3.3,11.37,10.3,11.37c6.94,0,10.36-4.76,10.36-11.37
			V17.17C57.13,10.68,53.71,5.8,46.77,5.8z M51.25,34.42c0,1.62-0.06,5.6-4.48,5.6c-4.37,0-4.48-3.98-4.48-5.6V17.17
			c0-1.62,0.11-5.6,4.48-5.6c4.42,0,4.48,3.98,4.48,5.6V34.42z"/>
		<rect x="36.47" y="46.57" class="st0" width="20.65" height="7.35"/>
	</g>
	<g>
		<polygon class="st0" points="57.9,62.99 57.9,57.16 37.24,57.16 37.24,95.69 57.9,95.69 57.9,89.81 43.4,89.81 43.4,79.34 
			56.17,79.34 56.17,73.52 43.4,73.52 43.4,62.99 		"/>
		<rect x="37.23" y="97.94" class="st0" width="20.65" height="7.35"/>
	</g>
	<g>
		<rect x="95.37" y="57.16" class="st0" width="5.88" height="38.53"/>
		<rect x="95.37" y="98" class="st0" width="5.88" height="7.35"/>
	</g>
	<g>
		<rect x="95.37" y="5.96" class="st0" width="5.88" height="38.53"/>
		<rect x="95.37" y="46.79" class="st0" width="5.88" height="7.35"/>
	</g>
</g>
</svg>
