<svg xmlns="http://www.w3.org/2000/svg"><symbol id="close" viewBox="0 0 256 256"><path d="M207.7 181.4L154.4 128l52.2-52.2c1.4-1.4 2.7-2.8 4-4.3 8.1-9.5 3.7-25.2-8.2-29.1-7.9-2.5-14.6-.5-20.3 5.3l-54 54-52.3-52.2-4.4-4.1c-9.5-8.1-25.3-3.6-29.1 8.4-2.4 7.7-.5 14.4 5.2 20.1l54.2 54.1-53.4 53.5c-1 1-2 2-2.9 3.1-4.4 5.7-5.3 12-2.6 18.6s7.9 10.4 15 11.3 12.1-2 16.8-6.7l53.5-53.4 53.4 53.4c1 1 2 2 3.1 2.9a18.1 18.1 0 0 0 20.2 1.7 18.6 18.6 0 0 0 9.8-17.6c-.4-5.5-3.1-9.7-6.9-13.4z"/></symbol><symbol id="facebook" viewBox="0 0 256 256"><path d="M224 12.9H32A19.2 19.2 0 0 0 12.9 32v192A19.2 19.2 0 0 0 32 243.1h192a19.2 19.2 0 0 0 19.1-19.1V32A19.2 19.2 0 0 0 224 12.9zM163.4 78h-16.8c-6 0-7.2 2.4-7.2 8.5v14.9h24l-2.3 26.1h-21.7v77.9h-31.1v-77.6H92.1v-26.4h16.2V80.6c0-19.5 10.4-29.7 33.6-29.7h21.5z"/></symbol><symbol id="linkedin" viewBox="0 0 256 256"><path d="M224.2 12.8H31.8a19 19 0 0 0-19 19v192.4a19 19 0 0 0 19 19h192.4a19 19 0 0 0 19-19V31.8a19 19 0 0 0-19-19zm-128 172.5H69.7V99.6h26.5zM82.8 88.4a15.8 15.8 0 1 1 15.7-15.8 15.7 15.7 0 0 1-15.7 15.8zm112.8 96.9h-26.4v-45c0-12.3-4.7-19.2-14.4-19.2s-16.2 7.2-16.2 19.2v45h-25.4V99.6h25.4v11.6A30 30 0 0 1 164.4 97c18.2 0 31.2 11.1 31.2 34.1z"/></symbol><symbol id="instagram" viewBox="0 0 256 256"><path d="M127.8 101.7a23.4 23.4 0 1 0 23.4 23.3 23.3 23.3 0 0 0-23.4-23.3z"/><path d="M182.5 83.7a20.9 20.9 0 0 0-5.2-8.1 21.9 21.9 0 0 0-8.1-5.3 40.5 40.5 0 0 0-13-2.4c-7.4-.3-9.6-.4-28.4-.4s-20.9.1-28.3.4a39.2 39.2 0 0 0-13 2.4 23.7 23.7 0 0 0-13.4 13.4 39.2 39.2 0 0 0-2.4 13c-.3 7.4-.4 9.6-.4 28.3s.1 21 .4 28.4a40.5 40.5 0 0 0 2.4 13 21.9 21.9 0 0 0 5.3 8.1 20.9 20.9 0 0 0 8.1 5.2c2.4 1 6.1 2.1 13 2.5s9.6.4 28.3.4 21-.1 28.4-.4 10.5-1.5 13-2.5a22.6 22.6 0 0 0 13.3-13.3c1-2.5 2.1-6.2 2.4-13s.5-9.6.5-28.4-.1-20.9-.5-28.3-1.4-10.6-2.4-13zm-54.7 77.4a36.1 36.1 0 1 1 36.1-36.1 36.1 36.1 0 0 1-36.1 36.1zM165.3 96a8.4 8.4 0 1 1 8.4-8.4 8.4 8.4 0 0 1-8.4 8.4z"/><path d="M224.2 12.8H31.8a19 19 0 0 0-19 19v192.4a19 19 0 0 0 19 19h192.4a19 19 0 0 0 19-19V31.8a19 19 0 0 0-19-19zM197.6 154a54.3 54.3 0 0 1-3.3 17 36.1 36.1 0 0 1-20.5 20.5c-4.5 1.8-9.6 2.9-17 3.3s-9.9.4-29 .4-21.4-.1-28.9-.4-12.6-1.5-17-3.3a34.9 34.9 0 0 1-12.5-8.1 33 33 0 0 1-8-12.4 49.1 49.1 0 0 1-3.3-17c-.3-7.5-.4-9.9-.4-29s.1-21.4.4-28.9 1.5-12.6 3.3-17a33 33 0 0 1 8-12.4 34.9 34.9 0 0 1 12.5-8.1c4.4-1.8 9.5-3 17-3.3s9.9-.4 28.9-.4 21.5.1 29 .4a49.1 49.1 0 0 1 17 3.3 36.1 36.1 0 0 1 20.5 20.5 53.1 53.1 0 0 1 3.3 17c.3 7.5.4 9.9.4 28.9s-.1 21.5-.4 29z"/></symbol><symbol id="menu" viewBox="0 0 256 256"><path d="M128.1 30.3H223c8.2 0 14.3 3.3 18.1 10.6 5.7 11.2-2.3 25.4-14.8 26.4a56.2 56.2 0 0 1-5.8.2H33.8c-6.7 0-12.4-1.8-16.7-7.2s-5.3-12-2.6-18.6 7.9-10.4 15.1-11.3a29.5 29.5 0 0 1 4.2-.2zm-.3 195.4h-95c-8 0-14.1-3.3-17.8-10.5-5.8-11.2 2.2-25.5 14.6-26.5l6-.2h186.5c5.4 0 10.2 1.1 14.4 4.7a18.7 18.7 0 0 1 5.6 19.4 18.5 18.5 0 0 1-15.6 13 29.5 29.5 0 0 1-4.2.2zm.2-79.1H33.3c-6.6 0-12.2-1.9-16.3-7.3s-5.2-12.1-2.3-18.6 8-10.3 15.1-11.1a21.7 21.7 0 0 1 3.6-.2h189.2c6.7 0 12.4 1.9 16.5 7.4s5.1 12 2.3 18.5a17.7 17.7 0 0 1-15.1 11.1 33.9 33.9 0 0 1-4.5.2z"/></symbol><symbol id="vimeo" viewBox="0 0 256 256"><path d="M224.2 12.8H31.8a19 19 0 0 0-19 19v192.4a19 19 0 0 0 19 19h192.4a19 19 0 0 0 19-19V31.8a19 19 0 0 0-19-19zm-23.7 81.5q-.9 21.2-29.6 58.1c-19.7 25.7-36.5 38.5-50.1 38.5-8.5 0-15.7-7.8-21.5-23.5l-11.7-43c-4.4-15.6-9-23.4-14-23.4-1.1 0-4.9 2.3-11.4 6.8L55.3 99c7.2-6.3 14.3-12.6 21.2-18.9 9.6-8.2 16.8-12.6 21.6-13 11.3-1.1 18.2 6.6 20.8 23.2s4.8 28.9 5.9 33.3q5 22.2 10.8 22.2c3 0 7.6-4.8 13.7-14.4s9.3-17 9.7-22c.9-8.3-2.3-12.4-9.7-12.4a28.7 28.7 0 0 0-10.8 2.3c7.2-23.4 20.8-34.7 40.9-34.1 14.9.5 22 10.2 21.1 29.1z"/></symbol><symbol id="scroll" viewBox="0 0 256 256"><path d="M154.4 161.7l52.2-52.3c1.4-1.4 2.7-2.8 4-4.3 8.1-9.5 3.7-25.2-8.2-29.1-7.9-2.5-14.6-.5-20.3 5.3L128 135.4 75.8 83.2a56.2 56.2 0 0 0-4.4-4.1c-9.5-8.1-25.3-3.6-29.1 8.3-2.4 7.8-.5 14.4 5.2 20.1l54.2 54.2 14.4 14.4a16.9 16.9 0 0 0 23.9 0z"/></symbol></svg>